<svg xmlns="http://www.w3.org/2000/svg" data-name="Layer 1" viewBox="0 0 100 125" x="0px" y="0px"><title>icons2</title><path d="M30.81,51.84a9,9,0,1,0,9,9A9,9,0,0,0,30.81,51.84Zm0,13.74a4.72,4.72,0,1,1,4.72-4.72A4.72,4.72,0,0,1,30.81,65.58Z"/><circle cx="30.81" cy="60.86" r="1.37"/><path d="M77.2,52.29a9,9,0,1,0,9,9A9,9,0,0,0,77.2,52.29ZM77.2,66a4.72,4.72,0,1,1,4.72-4.72A4.72,4.72,0,0,1,77.2,66Z"/><circle cx="77.21" cy="61.31" r="1.36"/><polygon points="34.61 41.66 34.61 43.22 36.2 41.66 34.61 41.66"/><path d="M96.76,56.18H96.1V46L81.9,43.19,71.36,29.6H44.48L30.59,43.19,11,47.41v8.76H8.8l1.48,5.14h9.27c0-.15,0-.3,0-.45a11.29,11.29,0,0,1,22.58,0c0,.15,0,.3,0,.45H65.92a11.29,11.29,0,0,1,22.58,0h8.27ZM55.24,41.66h-19l9.43-9.23h9.6Zm5.66,0V32.43H70l7.15,9.23Z"/><text x="0" y="115" fill="#000000" font-size="5px" font-weight="bold" font-family="'Helvetica Neue', Helvetica, Arial-Unicode, Arial, Sans-serif">Created by Orkhan Zizou Mursalov</text><text x="0" y="120" fill="#000000" font-size="5px" font-weight="bold" font-family="'Helvetica Neue', Helvetica, Arial-Unicode, Arial, Sans-serif">from the Noun Project</text></svg>